<?xml version="1.0" encoding="utf-8"?><svg viewBox="0 0 512 512" xmlns="http://www.w3.org/2000/svg" xmlns:xlink="http://www.w3.org/1999/xlink"><style>:root>svg{display:none}:root>svg:target{display:block}</style><svg viewBox="0 0 502.664 502.664" id="icon" xmlns="http://www.w3.org/2000/svg"><path d="M153.821 358.226L0 274.337v-46.463l153.821-83.414v54.574L46.636 250.523l107.185 53.431v54.272zm26.273 29.358L282.103 115.08h32.227L212.084 387.584h-31.99zm168.749-29.358v-54.272l107.164-52.999-107.164-52.59v-53.927l153.821 83.522v46.183l-153.821 84.083z"/></svg><svg viewBox="0 0 476.213 476.213" id="left-arrow-svgrepo-com-1_—_копия" xmlns="http://www.w3.org/2000/svg"><path d="M476.213 223.107H57.427l94.393-94.394-21.213-21.213L0 238.106l130.607 130.608L151.82 347.5l-94.393-94.393h418.786z"/></svg><svg viewBox="0 0 290 290" id="messenger-bubble-svgrepo-com" xmlns="http://www.w3.org/2000/svg"><path d="M25 0C11.236 0 0 11.237 0 25v200c0 13.764 11.236 25 25 25h15v35a5 5 0 008.123 3.904L96.754 250H265c13.764 0 25-11.236 25-25V25c0-13.764-11.236-25-25-25H25zm0 10h240c8.396 0 15 6.604 15 15v200c0 8.396-6.604 15-15 15H95a5 5 0 00-3.123 1.096L50 274.598V245a5 5 0 00-5-5H25c-8.396 0-15-6.604-15-15V25c0-8.396 6.604-15 15-15zm0 12.5a2.5 2.5 0 00-2.5 2.5v70a2.5 2.5 0 105 .07V27.5H95a2.5 2.5 0 10.07-5H25zm58.334 79.166C70.487 101.666 60 112.153 60 125s10.487 23.332 23.334 23.332 23.332-10.485 23.332-23.332-10.485-23.334-23.332-23.334zm61.666 0c-12.847 0-23.334 10.487-23.334 23.334s10.487 23.332 23.334 23.332 23.334-10.485 23.334-23.332-10.487-23.334-23.334-23.334zm61.666 0c-12.847 0-23.332 10.487-23.332 23.334s10.485 23.332 23.332 23.332S230 137.848 230 125s-10.487-23.334-23.334-23.334zm-123.332 6.666c9.244 0 16.666 7.424 16.666 16.668s-7.422 16.666-16.666 16.666S66.666 134.245 66.666 125s7.424-16.668 16.668-16.668zm61.666 0c9.244 0 16.666 7.424 16.666 16.668s-7.422 16.666-16.666 16.666-16.666-7.422-16.666-16.666 7.422-16.668 16.666-16.668zm61.666 0c9.244 0 16.668 7.424 16.668 16.668s-7.424 16.666-16.668 16.666S190 134.244 190 125s7.422-16.668 16.666-16.668zm-123.332 5c-6.424 0-11.668 5.242-11.668 11.666a1.667 1.667 0 003.334.001 8.308 8.308 0 018.334-8.332 1.667 1.667 0 100-3.335zm61.666 0c-6.424 0-11.666 5.242-11.666 11.666a1.667 1.667 0 103.332 0 8.308 8.308 0 018.334-8.332 1.667 1.667 0 100-3.334zm61.666 0c-6.424 0-11.666 5.242-11.666 11.666a1.667 1.667 0 103.334 0 8.306 8.306 0 018.332-8.332 1.667 1.667 0 100-3.334z"/></svg><svg viewBox="0 0 511.999 511.999" id="telephone-svgrepo-com" xmlns="http://www.w3.org/2000/svg"><path d="M397.027 329.423c-20.7-20.7-54.202-20.702-74.902-.001-14.267 14.267-22.296 25.371-40.977 25.371-10.064 0-19.524-3.919-26.641-11.035l-86.268-86.268c-7.116-7.116-11.035-16.578-11.035-26.64 0-18.801 11.423-27.028 25.37-40.975 20.7-20.698 20.703-54.203 0-74.904L150.77 83.167c-20.651-20.652-54.253-20.651-74.904 0-59.929 59.929-56.778 56.247-58.769 60.132-30.684 59.85-19.347 132.015 28.211 179.573l143.82 143.818c47.562 47.563 119.726 58.893 179.571 28.211 3.879-1.988.192 1.172 60.132-58.769 20.7-20.698 20.703-54.203.001-74.905l-31.805-31.804zm3.524 78.427l-52.804 52.804c-43.796 21.042-95.82 12.278-130.342-22.244L73.586 294.59c-34.523-34.522-43.284-86.547-22.245-130.342l52.804-52.804c5.059-5.056 13.29-5.056 18.346 0l31.804 31.802c5.068 5.068 5.071 13.275 0 18.346-15.364 15.365-37.084 32.822-37.084 69.255 0 20.746 8.08 40.249 22.749 54.919l86.268 86.268c14.669 14.671 34.174 22.749 54.921 22.749 36.281 0 53.685-21.515 69.255-37.084 5.071-5.071 13.274-5.07 18.345 0l31.804 31.802c5.068 5.072 5.069 13.279-.002 18.349zm-54.417-213.709l92.318-92.316c7.809-7.808 7.809-20.47 0-28.279-7.808-7.809-20.47-7.809-28.279 0l-92.317 92.317c-7.809 7.808-7.809 20.471 0 28.279 7.806 7.807 20.469 7.809 28.278-.001zm145.868 36.957H361.446c-11.043 0-19.996 8.953-19.996 19.996s8.953 19.996 19.996 19.996h130.556c11.043 0 19.996-8.953 19.996-19.996.001-11.043-8.952-19.996-19.996-19.996zm-231.098-60.549c11.043 0 19.996-8.953 19.996-19.996V19.996C280.901 8.953 271.948 0 260.904 0s-19.996 8.953-19.996 19.996v130.558c0 11.043 8.953 19.995 19.996 19.995z"/></svg></svg>